<svg width="89" height="24" viewBox="0 0 89 24" fill="none" xmlns="http://www.w3.org/2000/svg">
<path fill-rule="evenodd" clip-rule="evenodd" d="M25.3252 1.01257H27.2271C28.8091 1.01257 29.7399 1.9838 29.7399 3.6577C29.7399 5.33528 28.8091 6.32123 27.2271 6.32123H25.3252V1.01257ZM26.1492 1.7226V5.60753H27.1499C28.2756 5.60753 28.901 4.91956 28.901 3.66506C28.901 2.41423 28.2756 1.7226 27.1499 1.7226H26.1492ZM32.6751 6.36906C31.5199 6.36906 30.7842 5.58177 30.7842 4.32358C30.7842 3.06908 31.5236 2.27443 32.6751 2.27443C33.8266 2.27443 34.5624 3.0654 34.5624 4.32358C34.5624 5.58177 33.8303 6.36906 32.6751 6.36906ZM32.6751 5.70685C33.352 5.70685 33.753 5.19548 33.753 4.32358C33.753 3.45168 33.352 2.93663 32.6751 2.93663C31.9982 2.93663 31.5935 3.45536 31.5935 4.32358C31.5935 5.19548 31.9982 5.70685 32.6751 5.70685ZM40.9558 2.32594L39.8558 6.32123H39.0318L38.1819 3.31188H38.1635L37.321 6.32123H36.5007L35.397 2.32594H36.1916L36.9348 5.48979H36.9495L37.7957 2.32594H38.5609L39.4107 5.48979H39.4254L40.1686 2.32594H40.9558ZM41.9817 6.32123V2.32594H42.7432V2.99918H42.7579C43.0008 2.52827 43.4018 2.28179 44.0198 2.28179C44.9028 2.28179 45.4068 2.84099 45.4068 3.76071V6.32123H44.6085V3.91155C44.6085 3.30452 44.3288 2.96607 43.7439 2.96607C43.1406 2.96607 42.78 3.38546 42.78 4.01455V6.32123H41.9817ZM46.7601 6.32123V0.773438H47.5584V6.32123H46.7601ZM50.6408 6.36906C49.4857 6.36906 48.7499 5.58177 48.7499 4.32358C48.7499 3.06908 49.4893 2.27443 50.6408 2.27443C51.7924 2.27443 52.5282 3.0654 52.5282 4.32358C52.5282 5.58177 51.796 6.36906 50.6408 6.36906ZM50.6408 5.70685C51.3178 5.70685 51.7188 5.19548 51.7188 4.32358C51.7188 3.45168 51.3178 2.93663 50.6408 2.93663C49.9639 2.93663 49.5593 3.45536 49.5593 4.32358C49.5593 5.19548 49.9639 5.70685 50.6408 5.70685ZM55.0771 5.72525C55.6694 5.72525 56.1182 5.34632 56.1182 4.82024V4.50753L55.147 4.57375C54.6025 4.60686 54.3192 4.8092 54.3192 5.16237C54.3192 5.50451 54.6172 5.72525 55.0771 5.72525ZM54.8637 6.3617C54.0654 6.3617 53.5136 5.8908 53.5136 5.17709C53.5136 4.4781 54.0544 4.07341 55.0403 4.01087L56.1182 3.94833V3.6393C56.1182 3.18312 55.8129 2.93295 55.2794 2.93295C54.8453 2.93295 54.5289 3.15737 54.459 3.50318H53.7123C53.7343 2.79683 54.4039 2.27443 55.3015 2.27443C56.2764 2.27443 56.9056 2.78947 56.9056 3.58044V6.32123H56.1439V5.65535H56.1256C55.9048 6.08946 55.4082 6.3617 54.8637 6.3617ZM59.7341 6.3617C58.7334 6.3617 58.0491 5.55601 58.0491 4.31991C58.0491 3.09115 58.7334 2.28547 59.7267 2.28547C60.3007 2.28547 60.7568 2.54667 60.9849 2.98814H61.0033V0.773438H61.798V6.32123H61.0254V5.64431H61.0107C60.7752 6.09682 60.319 6.3617 59.7341 6.3617ZM59.9365 2.96239C59.2926 2.96239 58.8659 3.4995 58.8659 4.32358C58.8659 5.15134 59.289 5.68477 59.9365 5.68477C60.5766 5.68477 61.007 5.1403 61.007 4.32358C61.007 3.51054 60.5766 2.96239 59.9365 2.96239ZM67.135 6.36906C65.9798 6.36906 65.2441 5.58177 65.2441 4.32358C65.2441 3.06908 65.9835 2.27443 67.135 2.27443C68.2865 2.27443 69.0223 3.0654 69.0223 4.32358C69.0223 5.58177 68.2902 6.36906 67.135 6.36906ZM67.135 5.70685C67.8119 5.70685 68.2129 5.19548 68.2129 4.32358C68.2129 3.45168 67.8119 2.93663 67.135 2.93663C66.4581 2.93663 66.0534 3.45536 66.0534 4.32358C66.0534 5.19548 66.4581 5.70685 67.135 5.70685ZM70.1843 6.32123V2.32594H70.9458V2.99918H70.9605C71.2034 2.52827 71.6044 2.28179 72.2225 2.28179C73.1054 2.28179 73.6094 2.84099 73.6094 3.76071V6.32123H72.8111V3.91155C72.8111 3.30452 72.5314 2.96607 71.9465 2.96607C71.3432 2.96607 70.9826 3.38546 70.9826 4.01455V6.32123H70.1843ZM77.4271 1.42828H78.2218V2.32594H78.9869V2.95503H78.2218V5.18812C78.2218 5.53395 78.3762 5.69581 78.711 5.69581C78.7957 5.69581 78.9318 5.68477 78.9833 5.67742V6.30652C78.895 6.32858 78.7074 6.34698 78.5345 6.34698C77.7361 6.34698 77.4271 6.04163 77.4271 5.26906V2.95503H76.8753V2.32594H77.4271V1.42828ZM80.2151 6.32123V0.773438H81.0062V2.99918H81.0245C81.2636 2.52827 81.6757 2.28179 82.2864 2.28179C83.1657 2.28179 83.6917 2.86673 83.6917 3.76807V6.32123H82.8934V3.92258C82.8934 3.3266 82.5954 2.96607 82.0105 2.96607C81.3888 2.96607 81.0135 3.39282 81.0135 4.03295V6.32123H80.2151ZM86.6748 2.9256C86.1009 2.9256 85.6852 3.345 85.641 3.95937H87.668C87.6497 3.33764 87.2557 2.9256 86.6748 2.9256ZM87.6645 5.15134H88.4256C88.3116 5.86873 87.6097 6.36906 86.7116 6.36906C85.5527 6.36906 84.8317 5.58913 84.8317 4.3383C84.8317 3.08747 85.5601 2.27443 86.6785 2.27443C87.775 2.27443 88.4665 3.03597 88.4665 4.24633V4.52592H85.6374V4.57375C85.6374 5.26538 86.0715 5.72157 86.7263 5.72157C87.1896 5.72157 87.554 5.50083 87.6645 5.15134Z" fill="#F9F9F9"/>
<path fill-rule="evenodd" clip-rule="evenodd" d="M31.365 21.439L30.4262 18.6651H26.5143L25.5754 21.439H23.9182L27.6238 11.1756H29.3451L33.0507 21.439H31.365ZM28.4489 12.8826L26.9197 17.3849H30.0207L28.4916 12.8826H28.4489ZM38.1821 13.6366C40.1523 13.6366 41.4468 15.18 41.4468 17.5769C41.4468 19.9667 40.1594 21.5173 38.2177 21.5173C37.1082 21.5173 36.2333 21.0265 35.771 20.173H35.7425V23.9996H34.1991V13.7148H35.6856V14.9951H35.7211C36.155 14.1629 37.1082 13.6366 38.1821 13.6366ZM37.791 20.2086C39.0427 20.2086 39.8678 19.1773 39.8678 17.5769C39.8678 15.9837 39.0427 14.9452 37.791 14.9452C36.5676 14.9452 35.7354 16.005 35.7283 17.5769C35.7354 19.1559 36.5604 20.2086 37.791 20.2086ZM46.8343 13.6366C48.8044 13.6366 50.0989 15.18 50.0989 17.5769C50.0989 19.9667 48.8116 21.5173 46.8698 21.5173C45.7602 21.5173 44.8854 21.0265 44.4231 20.173H44.3947V23.9996H42.8512V13.7148H44.3377V14.9951H44.3733C44.8072 14.1629 45.7602 13.6366 46.8343 13.6366ZM46.443 20.2086C47.6949 20.2086 48.5199 19.1773 48.5199 17.5769C48.5199 15.9837 47.6949 14.9452 46.443 14.9452C45.2197 14.9452 44.3876 16.005 44.3804 17.5769C44.3876 19.1559 45.2126 20.2086 46.443 20.2086ZM54.7357 18.5798H56.3076C56.4214 19.5969 57.4101 20.2654 58.7614 20.2654C60.0559 20.2654 60.9876 19.5969 60.9876 18.6794C60.9876 17.8827 60.4257 17.4062 59.0957 17.079L57.7656 16.759C55.8808 16.3037 55.006 15.4218 55.006 13.9922C55.006 12.2212 56.5494 11.0049 58.7401 11.0049C60.9095 11.0049 62.3959 12.2212 62.4457 13.9922H60.8952C60.8027 12.968 59.9563 12.3492 58.7187 12.3492C57.4811 12.3492 56.6348 12.9751 56.6348 13.8855C56.6348 14.611 57.1753 15.0377 58.4983 15.3649L59.6292 15.6423C61.7345 16.1402 62.6094 16.9865 62.6094 18.4873C62.6094 20.4077 61.0801 21.6098 58.6476 21.6098C56.3716 21.6098 54.8353 20.4362 54.7357 18.5798ZM64.5187 11.9793H66.0551V13.7148H67.5345V14.9311H66.0551V19.2484C66.0551 19.917 66.3538 20.2299 67.001 20.2299C67.1646 20.2299 67.4277 20.2086 67.5273 20.1944V21.4106C67.3567 21.4533 66.9939 21.4888 66.6596 21.4888C65.1162 21.4888 64.5187 20.8985 64.5187 19.4048V14.9311H63.4519V13.7148H64.5187V11.9793ZM72.1396 21.5315C69.9062 21.5315 68.4837 20.0094 68.4837 17.5769C68.4837 15.1516 69.9134 13.6152 72.1396 13.6152C74.3657 13.6152 75.7882 15.1444 75.7882 17.5769C75.7882 20.0094 74.3729 21.5315 72.1396 21.5315ZM72.1396 20.2513C73.4482 20.2513 74.2235 19.2626 74.2235 17.5769C74.2235 15.8913 73.4482 14.8955 72.1396 14.8955C70.8309 14.8955 70.0484 15.8984 70.0484 17.5769C70.0484 19.2626 70.8309 20.2513 72.1396 20.2513ZM77.1998 21.439V13.7148H78.6722V15.0164H78.7006C78.9424 14.1558 79.6537 13.6366 80.5641 13.6366C80.7917 13.6366 80.9837 13.6579 81.1046 13.6863V15.1302C80.9766 15.0804 80.7063 15.0377 80.4005 15.0377C79.3834 15.0377 78.7432 15.7419 78.7432 16.8301V21.439H77.1998ZM85.4821 14.8742C84.3726 14.8742 83.5688 15.6849 83.4835 16.8728H87.4027C87.367 15.6708 86.6059 14.8742 85.4821 14.8742ZM87.3957 19.1773H88.8675C88.6474 20.5642 87.2887 21.5315 85.5533 21.5315C83.3128 21.5315 81.9187 20.0236 81.9187 17.6053C81.9187 15.1871 83.327 13.6152 85.4892 13.6152C87.6088 13.6152 88.9458 15.0875 88.9458 17.4275V17.9681H83.4764V18.0606C83.4764 19.3977 84.3157 20.2797 85.5817 20.2797C86.4779 20.2797 87.1817 19.853 87.3957 19.1773Z" fill="#F9F9F9"/>
<path d="M15.7397 18.4366C14.8584 19.7197 13.9466 20.9951 12.5071 21.0218C11.0904 21.0486 10.6363 20.1864 9.01974 20.1864C7.40144 20.1864 6.89521 20.9951 5.55761 21.0486C4.16792 21.1003 3.11123 19.6626 2.22257 18.3851C0.407046 15.7732 -0.978625 11 0.884958 7.7787C1.8078 6.17894 3.46142 5.16676 5.25338 5.14004C6.61812 5.11503 7.90735 6.05606 8.74096 6.05606C9.57582 6.05606 11.1406 4.92626 12.7857 5.09197C13.4744 5.12029 15.407 5.36821 16.6482 7.17639C16.5502 7.24057 14.3413 8.51995 14.3682 11.1853C14.3953 14.3693 17.1707 15.4276 17.2029 15.4419C17.1777 15.5168 16.7593 16.9528 15.7397 18.4366ZM9.69585 1.59439C10.4577 0.705546 11.7451 0.0444228 12.8075 0C12.9432 1.23466 12.4442 2.47101 11.7074 3.36191C10.969 4.2512 9.7604 4.94396 8.57424 4.85146C8.41305 3.64352 9.01087 2.38376 9.69585 1.59439Z" fill="white"/>
</svg>
