<svg width="33" height="32" viewBox="0 0 33 32" fill="none" xmlns="http://www.w3.org/2000/svg">
<path d="M20.0999 1.99942H20.5399C20.7877 2.00007 21.0265 2.09272 21.2099 2.25942L26.7699 7.25942C26.8734 7.35291 26.9563 7.46705 27.0132 7.5945C27.07 7.72195 27.0995 7.85988 27.0999 7.99942H21.0999C20.8346 7.99942 20.5803 7.89406 20.3927 7.70653C20.2052 7.51899 20.0999 7.26464 20.0999 6.99942V1.99942ZM27.0999 9.99942V26.9994C27.066 27.8226 26.7089 28.5993 26.1061 29.1609C25.5033 29.7225 24.7034 30.0238 23.8799 29.9994H8.31985C7.49632 30.0238 6.69639 29.7225 6.09358 29.1609C5.49077 28.5993 5.13371 27.8226 5.09985 26.9994V4.99942C5.13371 4.17622 5.49077 3.39958 6.09358 2.83795C6.69639 2.27633 7.49632 1.97503 8.31985 1.99942H18.0999V6.99942C18.0999 7.79507 18.4159 8.55813 18.9785 9.12074C19.5411 9.68335 20.3042 9.99942 21.0999 9.99942H27.0999ZM21.0999 23.9994C21.0999 23.7342 20.9945 23.4798 20.807 23.2923C20.6194 23.1048 20.3651 22.9994 20.0999 22.9994H12.0999C11.8346 22.9994 11.5803 23.1048 11.3927 23.2923C11.2052 23.4798 11.0999 23.7342 11.0999 23.9994C11.0999 24.2646 11.2052 24.519 11.3927 24.7065C11.5803 24.8941 11.8346 24.9994 12.0999 24.9994H20.0999C20.3651 24.9994 20.6194 24.8941 20.807 24.7065C20.9945 24.519 21.0999 24.2646 21.0999 23.9994ZM21.0999 18.9994C21.0999 18.7342 20.9945 18.4798 20.807 18.2923C20.6194 18.1048 20.3651 17.9994 20.0999 17.9994H12.0999C11.8346 17.9994 11.5803 18.1048 11.3927 18.2923C11.2052 18.4798 11.0999 18.7342 11.0999 18.9994C11.0999 19.2646 11.2052 19.519 11.3927 19.7065C11.5803 19.8941 11.8346 19.9994 12.0999 19.9994H20.0999C20.3651 19.9994 20.6194 19.8941 20.807 19.7065C20.9945 19.519 21.0999 19.2646 21.0999 18.9994ZM21.0999 13.9994C21.0999 13.7342 20.9945 13.4798 20.807 13.2923C20.6194 13.1048 20.3651 12.9994 20.0999 12.9994H12.0999C11.8346 12.9994 11.5803 13.1048 11.3927 13.2923C11.2052 13.4798 11.0999 13.7342 11.0999 13.9994C11.0999 14.2646 11.2052 14.519 11.3927 14.7065C11.5803 14.8941 11.8346 14.9994 12.0999 14.9994H20.0999C20.3651 14.9994 20.6194 14.8941 20.807 14.7065C20.9945 14.519 21.0999 14.2646 21.0999 13.9994Z" fill="white"/>
</svg>
