<svg width="96" height="24" viewBox="0 0 96 24" fill="none" xmlns="http://www.w3.org/2000/svg">
<path fill-rule="evenodd" clip-rule="evenodd" d="M0 10.7439V1.64643C0 1.12657 0.434246 0.693359 0.868492 0.693359C1.30274 0.693359 1.47644 0.780002 1.73699 0.953287L18.4989 10.1374C18.8463 10.3106 19.02 10.5706 19.02 10.8306C19.02 11.0904 18.8463 11.3504 18.4989 11.5236L1.73699 20.7078C1.56329 20.7944 1.30274 20.9677 0.868492 20.9677C0.434246 20.9677 0 20.5345 0 20.0146V10.7439Z" fill="url(#paint0_linear_1143_24374)"/>
<path fill-rule="evenodd" clip-rule="evenodd" d="M10.9536 10.8716L0.792236 0.734375C0.879086 0.734375 0.879086 0.734375 0.965934 0.734375C1.40018 0.734375 1.57388 0.821018 1.83443 0.994303L14.167 7.75242L10.9536 10.8716Z" fill="url(#paint1_linear_1143_24374)"/>
<path fill-rule="evenodd" clip-rule="evenodd" d="M14.0846 13.9928L10.958 10.8737L14.1714 7.66797L18.6007 10.0939C18.9481 10.2673 19.1218 10.5272 19.1218 10.7871C19.1218 11.047 18.9481 11.307 18.6007 11.4802L14.0846 13.9928Z" fill="url(#paint2_linear_1143_24374)"/>
<path fill-rule="evenodd" clip-rule="evenodd" d="M0.88208 20.9217L10.9566 10.8711L14.0832 13.9902L1.83742 20.6617C1.57687 20.8351 1.40317 20.9217 0.88208 20.9217C0.968929 20.9217 0.968929 20.9217 0.88208 20.9217Z" fill="url(#paint3_linear_1143_24374)"/>
<path fill-rule="evenodd" clip-rule="evenodd" d="M53.2385 23.1336C52.8042 22.787 52.4569 22.1805 52.2831 21.8339L53.6728 21.2274C53.7596 21.4007 53.9333 21.6606 54.107 21.9206C54.4544 22.2671 54.9756 22.6137 55.4966 22.6137C56.0177 22.6137 56.6257 22.3538 56.9731 21.9206C57.2336 21.4873 57.4073 21.0541 57.4073 20.4477V19.9277C56.3651 21.2274 54.1939 21.0541 52.978 19.6679C51.6752 18.2815 51.6752 15.9422 52.978 14.556C54.2808 13.2563 56.1914 13.083 57.3205 14.296V13.6895H58.7969V20.1877C58.7969 21.8339 58.189 22.787 57.4073 23.3935C56.8862 23.8267 56.1046 24 55.4098 24C54.6282 23.9134 53.8465 23.6534 53.2385 23.1336ZM89.6283 23.4801L91.1048 20.0145L88.4993 14.0361H89.9757L91.7996 18.2815L93.6234 14.0361H95.0998L91.1048 23.4801H89.6283ZM82.5936 20.1877C82.1593 19.7545 81.9856 19.148 81.9856 18.5415C81.9856 18.0217 82.1593 17.5018 82.5067 17.1552C83.1147 16.5487 83.9832 16.2888 84.9385 16.2888C85.5464 16.2888 86.0675 16.3754 86.5018 16.6354C86.5018 15.5957 85.6333 15.1624 84.9385 15.1624C84.3306 15.1624 83.7226 15.509 83.4621 16.1155L82.1593 15.5957C82.4199 14.9892 83.1147 13.8628 84.8517 13.8628C85.7201 13.8628 86.5886 14.1228 87.1097 14.7292C87.6308 15.3357 87.8045 16.0289 87.8045 16.9819V20.6209H86.3281V20.0145C86.1544 20.2743 85.807 20.4477 85.5464 20.6209C85.199 20.7942 84.7648 20.8809 84.3306 20.8809C83.8095 20.7942 83.0278 20.6209 82.5936 20.1877ZM36.303 17.0686C36.303 15.3357 37.6057 13.4296 39.9506 13.4296C42.2087 13.4296 43.5983 15.3357 43.5983 17.0686C43.5983 18.8015 42.2955 20.7075 39.9506 20.7075C37.6057 20.7075 36.303 18.8015 36.303 17.0686ZM44.1193 17.0686C44.1193 15.3357 45.4221 13.4296 47.767 13.4296C50.0251 13.4296 51.4146 15.3357 51.4146 17.0686C51.4146 18.8015 50.1119 20.7075 47.767 20.7075C45.5089 20.7075 44.1193 18.8015 44.1193 17.0686ZM26.489 18.9747C24.3177 16.8087 24.4046 13.2563 26.5758 11.0036C27.7049 9.87725 29.0944 9.35742 30.5709 9.35742C31.9605 9.35742 33.3501 9.87725 34.3923 10.917L33.3501 12.0434C31.7868 10.4838 29.2681 10.5704 27.7917 12.13C26.2284 13.7762 26.2284 16.2888 27.7917 17.935C29.355 19.5812 31.9605 19.6679 33.5238 18.0217C34.0449 17.5018 34.2186 16.8087 34.3054 16.1155H30.6577V14.556H35.7819C35.8687 14.9025 35.8687 15.3357 35.8687 15.7689C35.8687 17.0686 35.3476 18.3683 34.4791 19.2347C33.5238 20.1877 32.1342 20.7075 30.7446 20.7075C29.1813 20.6209 27.618 20.1011 26.489 18.9747ZM63.2262 19.5812C61.9235 18.1949 61.9235 15.8556 63.2262 14.3826C64.5289 12.9964 66.7001 12.9964 67.916 14.3826C68.3503 14.8159 68.6108 15.4224 68.8714 16.0289L64.0947 18.0217C64.3552 18.6281 64.9632 19.148 65.8317 19.148C66.6133 19.148 67.1344 18.8881 67.6555 18.1083L68.9582 18.9747C68.7845 19.148 68.6108 19.3213 68.524 19.4945C67.0475 20.9675 64.5289 20.9675 63.2262 19.5812ZM72.2585 20.6209V11.0036H75.385C77.2089 11.0036 78.6854 12.3032 78.6854 13.8628C78.6854 15.4224 77.3826 16.722 75.7324 16.722H73.8217V20.5343H72.2585V20.6209ZM79.5539 20.6209V11.0036H81.0303V20.6209H79.5539ZM59.9259 20.4477V9.704H61.4892V20.4477H59.9259ZM86.4149 17.7617C86.0675 17.5018 85.5464 17.4151 85.0254 17.4151C83.9832 17.4151 83.3752 17.935 83.3752 18.5415C83.3752 19.148 83.9832 19.4945 84.5911 19.4945C85.4596 19.4945 86.4149 18.8015 86.4149 17.7617ZM41.9481 17.0686C41.9481 16.0289 41.2533 14.9025 39.9506 14.9025C38.6479 14.9025 37.9531 16.0289 37.9531 17.0686C37.9531 18.1083 38.6479 19.2347 39.9506 19.2347C41.1665 19.2347 41.9481 18.1083 41.9481 17.0686ZM49.7645 17.0686C49.7645 16.0289 49.0697 14.9025 47.767 14.9025C46.4643 14.9025 45.7695 16.0289 45.7695 17.0686C45.7695 18.1083 46.4643 19.2347 47.767 19.2347C49.0697 19.2347 49.7645 18.1083 49.7645 17.0686ZM57.4942 17.6751C57.4942 17.5885 57.4942 17.5018 57.581 17.4151C57.581 17.3285 57.581 17.1552 57.581 17.0686C57.581 16.9819 57.581 16.8087 57.581 16.722V16.6354C57.581 16.5487 57.4942 16.3754 57.4942 16.2888C57.2336 15.4224 56.452 14.8159 55.6703 14.8159C54.6282 14.8159 53.7596 15.8556 53.7596 16.9819C53.7596 18.1949 54.6282 19.148 55.7572 19.148C56.452 19.2347 57.1468 18.6281 57.4942 17.6751ZM63.8341 16.8953L67.0475 15.509C66.7001 14.9025 66.1791 14.7292 65.7448 14.7292C64.4421 14.8159 63.6604 16.2022 63.8341 16.8953ZM77.122 13.9494C77.122 13.083 76.4272 12.4766 75.4719 12.4766H73.7349V15.509H75.5587C76.4272 15.509 77.122 14.8159 77.122 13.9494Z" fill="#F9F9F9"/>
<path d="M25.2731 2.51264C25.2731 0.953066 26.4021 0 27.7917 0C28.747 0 29.355 0.433213 29.7892 1.03971L29.0944 1.47292C28.8339 1.12636 28.3997 0.866425 27.7917 0.866425C26.8364 0.866425 26.1416 1.55957 26.1416 2.59928C26.1416 3.63898 26.8364 4.33213 27.7917 4.33213C28.3128 4.33213 28.747 4.0722 28.9207 3.89892V3.11913H27.5312V2.33935H29.8761V4.15884C29.4418 4.6787 28.747 5.02526 27.8786 5.02526C26.4021 5.02526 25.2731 3.98556 25.2731 2.51264Z" fill="#F9F9F9"/>
<path d="M30.9183 4.93862V0.0866429H34.2186V0.866425H31.6999V2.07942H34.1317V2.8592H31.6999V4.24549H34.2186V5.02526L30.9183 4.93862Z" fill="#F9F9F9"/>
<path d="M36.6503 4.93862V0.866426H35.1739V0.0866429H38.9953V0.866426H37.5188V4.93862H36.6503Z" fill="#F9F9F9"/>
<path d="M41.9481 4.93862V0.0866429H42.8166V4.93862H41.9481Z" fill="#F9F9F9"/>
<path d="M45.1615 4.93862V0.866426H43.6851V0.0866429H47.5065V0.866426H46.03V4.93862H45.1615Z" fill="#F9F9F9"/>
<path d="M50.2856 2.51264C50.2856 1.03971 51.3278 0 52.8042 0C54.2807 0 55.3229 1.03971 55.3229 2.51264C55.3229 3.98556 54.2807 5.02526 52.8042 5.02526C51.3278 5.02526 50.2856 3.89892 50.2856 2.51264ZM54.3676 2.51264C54.3676 1.47292 53.7596 0.779783 52.7174 0.779783C51.762 0.779783 51.0673 1.55957 51.0673 2.51264C51.0673 3.55234 51.6752 4.24549 52.7174 4.24549C53.7596 4.24549 54.3676 3.4657 54.3676 2.51264Z" fill="#F9F9F9"/>
<path d="M59.6654 4.93862L57.1468 1.47292V4.93862H56.2783V0.0866429H57.1468L59.6654 3.4657V0.0866429H60.5339V4.93862H59.6654Z" fill="#F9F9F9"/>
<defs>
<linearGradient id="paint0_linear_1143_24374" x1="5.61689" y1="-0.54251" x2="10.4789" y2="19.3774" gradientUnits="userSpaceOnUse">
<stop stop-color="#006884"/>
<stop offset="1" stop-color="#8AD1D0"/>
</linearGradient>
<linearGradient id="paint1_linear_1143_24374" x1="-0.9094" y1="2.33189" x2="12.3403" y2="9.47773" gradientUnits="userSpaceOnUse">
<stop stop-color="#24BBB6"/>
<stop offset="1" stop-color="#DBE692"/>
</linearGradient>
<linearGradient id="paint2_linear_1143_24374" x1="4.17891" y1="7.5121" x2="4.17891" y2="0.625407" gradientUnits="userSpaceOnUse">
<stop stop-color="#FCC072"/>
<stop offset="1" stop-color="#F58A5B"/>
</linearGradient>
<linearGradient id="paint3_linear_1143_24374" x1="1.57227" y1="12.6639" x2="12.0391" y2="2.03698" gradientUnits="userSpaceOnUse">
<stop stop-color="#712B8F"/>
<stop offset="1" stop-color="#EA1D27"/>
</linearGradient>
</defs>
</svg>
